# xmcd CD database file
#
# Track frame offsets:
#	150
#	16653
#	34798
#	54065
#	68500
#	84211
#	101503
#	118191
#	135815
#	152397
#	177634
#	192911
#	209202
#	223205
#	240703
#	260703
#	279194
#	292586
#	306099
#	324807
#
# Disc length: 4557 seconds
#
# Revision: 0
# Processed by: cddbd v1.5.2PL0 Copyright (c) Steve Scherf et al.
# Submitted via: CDex 1.70beta2
#
DISCID=0911cb14
DTITLE=Country Hits - 100 Essential Tracks Country Hits CD 5
DYEAR=2009
DGENRE=Country
TTITLE0=Gretchen Wilson - Redneck Woman
TTITLE1=Lonstar - Amased
TTITLE2=Mindy McCready Oh Romeo
TTITLE3=Radney Foster - Just Call Me Lonesome
TTITLE4=Sherrie Austin - Lucky In Love
TTITLE5=Blake Shelton
TTITLE6=Mary Chapin Carpenter - Shut Up And Kiss Me
TTITLE7=Kenny Chesney - I Lost It
TTITLE8=Brooks and Dunn - How Long Gone
TTITLE9=Sara Evans - Born To Fly
TTITLE10=Travis Tritt - Still In Love With You
TTITLE11=Martina McBride - Broken Wing
TTITLE12=Miranda Lambert - Kerosene
TTITLE13=Pam Tillis - Spilled Perfume
TTITLE14=John Michael Montgomery - I Swear
TTITLE15=Patty Loveless - You Don't Even Know Who I Am
TTITLE16=Billy Joe Royal - Tell It Like It Is
TTITLE17=Ricky Skaggs - Crying My Heart Out Over You
TTITLE18=Beth Nielson - Chapman Sand And Water
TTITLE19=Carrie Underwood - Jesus Take The Wheel
EXTD=YEAR: 2009
EXTT0=
EXTT1=
EXTT2=
EXTT3=
EXTT4=
EXTT5=
EXTT6=
EXTT7=
EXTT8=
EXTT9=
EXTT10=
EXTT11=
EXTT12=
EXTT13=
EXTT14=
EXTT15=
EXTT16=
EXTT17=
EXTT18=
EXTT19=
PLAYORDER=
